<svg xmlns="http://www.w3.org/2000/svg" viewBox="0 0 128 128" role="img" aria-labelledby="title desc">
  <title id="title">Duck Survival Wiki logo</title>
  <desc id="desc">A stylized duck shield for Duck Survival Wiki.</desc>
  <rect width="128" height="128" rx="22" fill="#2F3E34"/>
  <path d="M24 78c4 22 24 34 40 34s36-12 40-34V35L64 18 24 35v43z" fill="#FFF4DC"/>
  <path d="M42 67c0-17 11-31 28-31 15 0 24 11 24 25 0 18-12 32-31 32-14 0-21-10-21-26z" fill="#F2A93B"/>
  <path d="M76 54h28l-21 14-7-14z" fill="#E76825"/>
  <circle cx="69" cy="52" r="5" fill="#1F241D"/>
  <path d="M39 81c10 10 32 15 50-2" fill="none" stroke="#1F241D" stroke-width="6" stroke-linecap="round"/>
  <path d="M30 96h76" stroke="#6FC24A" stroke-width="8" stroke-linecap="round"/>
</svg>
